<svg xmlns="http://www.w3.org/2000/svg" viewBox="0 0 24 24" id="sad"><circle cx="12" cy="12" r="9.75" fill="#bad7ff"></circle><path fill="#549bff" d="m9,10.75c-.414,0-.75-.336-.75-.75v-1c0-.414.336-.75.75-.75s.75.336.75.75v1c0,.414-.336.75-.75.75Zm6.75-.75v-1c0-.414-.336-.75-.75-.75s-.75.336-.75.75v1c0,.414.336.75.75.75s.75-.336.75-.75Zm.585,5.671c.371-.186.521-.636.335-1.006-.049-.099-1.247-2.415-4.671-2.415s-4.622,2.316-4.671,2.415c-.184.368-.036.811.33.999.365.189.816.043,1.008-.32.035-.065.87-1.593,3.333-1.593s3.298,1.527,3.329,1.585c.131.263.396.415.671.415.113,0,.227-.025.335-.079Z"></path></svg>